<svg xmlns="http://www.w3.org/2000/svg" viewBox="0 0 400 80" role="img" aria-label="CertConvert">
  <defs>
    <linearGradient id="cc-shield" x1="0" y1="0" x2="0" y2="1">
      <stop offset="0" stop-color="#818cf8"/><stop offset="1" stop-color="#6366f1"/>
    </linearGradient>
  </defs>
  <g transform="translate(8,8) scale(0.6667)">
    <rect width="96" height="96" rx="20" fill="#1e1b4b"/>
    <path d="M48 14 L74 23 V47 C74 64 62 74 48 80 C34 74 22 64 22 47 V23 Z" fill="url(#cc-shield)"/>
    <rect x="40" y="30" width="24" height="30" rx="3" fill="#ffffff"/>
    <path d="M58 30 v6 h6 Z" fill="#c7d2fe"/>
    <rect x="44" y="39" width="14" height="2.6" rx="1.3" fill="#c7d2fe"/>
    <rect x="44" y="44" width="14" height="2.6" rx="1.3" fill="#c7d2fe"/>
    <circle cx="51" cy="54" r="4" fill="#1e1b4b" stroke="#c7d2fe" stroke-width="1.6"/>
    <path d="M49 57 l-1.6 5 l3.6 -2 l3.6 2 l-1.6 -5" fill="#c7d2fe"/>
    <path d="M30 46 a10 10 0 0 1 9 -9" fill="none" stroke="#ffffff" stroke-width="3" stroke-linecap="round"/>
    <path d="M39 34 l1 4 l-4 0 Z" fill="#ffffff"/>
    <path d="M66 50 a10 10 0 0 1 -9 9" fill="none" stroke="#c7d2fe" stroke-width="3" stroke-linecap="round"/>
    <path d="M57 62 l-1 -4 l4 0 Z" fill="#c7d2fe"/>
  </g>
  <text x="86" y="56" font-family="Segoe UI, system-ui, Arial, sans-serif" font-weight="700" font-size="42" letter-spacing="0.2">
    <tspan fill="#ffffff">Cert</tspan><tspan fill="#a5b4fc">Convert</tspan>
  </text>
</svg>
